<svg xmlns="http://www.w3.org/2000/svg" xmlns:xlink="http://www.w3.org/1999/xlink" id="Layer_1" x="0" y="0" version="1.1" viewBox="0 0 32 29" xml:space="preserve" style="enable-background:new 0 0 32 29"><style type="text/css">.st0{fill:none}.st1{fill:#fdb300}.st2{fill:#ea6c00}.st3{fill:#fdad00}.st4{fill:#fdd231}.st5{fill:#feeeb7}</style><g><path d="M2,1h28v28H2V1z" class="st0"/><g><path d="M8.1,2.7L16,1.9l7.9,0.8l6.1,8.2L16,27.2L2,10.9L8.1,2.7z" class="st1"/><path d="M7.7,10.9L16,27.2L2,10.9H7.7z M24.3,10.9L16,27.2l14-16.3H24.3z" class="st2"/><path d="M7.7,10.9h16.6L16,27.2L7.7,10.9z" class="st3"/><path d="M16,1.9L8.1,2.7l-0.4,8.2L16,1.9z M16,1.9l7.9,0.8l0.4,8.2L16,1.9z" class="st4"/><path d="M29.9,10.9l-6.1-8.2l0.4,8.2H29.9z M2,10.9l6.1-8.2l-0.4,8.2H2z" class="st3"/><path d="M16,1.9l-8.3,9h16.6L16,1.9z" class="st5"/></g></g></svg>