<svg xmlns="http://www.w3.org/2000/svg" xmlns:xlink="http://www.w3.org/1999/xlink" id="b99f5637-cc4d-407c-b7ba-373a3139f85a" data-name="Layer 1" viewBox="0 0 288 288"><defs><linearGradient id="b6979a3f-d13f-4c49-8878-296bb68ba524" x1="37.187" x2="140.584" y1="210.809" y2="31.72" gradientUnits="userSpaceOnUse"><stop offset="0" stop-color="#fff" stop-opacity="0"/><stop offset=".162" stop-color="#fff" stop-opacity=".224"/><stop offset=".377" stop-color="#fff" stop-opacity=".496"/><stop offset=".571" stop-color="#fff" stop-opacity=".713"/><stop offset=".738" stop-color="#fff" stop-opacity=".869"/><stop offset=".869" stop-color="#fff" stop-opacity=".965"/><stop offset=".95" stop-color="#fff"/></linearGradient><linearGradient id="bd875187-534e-4e57-b1ee-6e4375efa10e" x1="107.859" x2="249.999" y1="267.249" y2="125.109" gradientUnits="userSpaceOnUse"><stop offset=".4" stop-color="#fff"/><stop offset=".448" stop-color="#fff" stop-opacity=".965"/><stop offset=".527" stop-color="#fff" stop-opacity=".869"/><stop offset=".627" stop-color="#fff" stop-opacity=".713"/><stop offset=".744" stop-color="#fff" stop-opacity=".496"/><stop offset=".873" stop-color="#fff" stop-opacity=".224"/><stop offset=".97" stop-color="#fff" stop-opacity="0"/></linearGradient><mask id="be4e8e52-f9ba-472b-987c-e343895fc1e7" width="184" height="184" x="52" y="52" maskUnits="userSpaceOnUse"><g><polyline fill="none" stroke="url(#b6979a3f-d13f-4c49-8878-296bb68ba524)" stroke-linejoin="round" stroke-width="8.28" points="178.5 57.75 75 57.75 75 230.25"/><polyline fill="none" stroke="url(#bd875187-534e-4e57-b1ee-6e4375efa10e)" stroke-linejoin="round" stroke-width="8.28" points="75 230.25 213 230.25 213 92.25"/><polygon fill="none" stroke="#fff" stroke-linejoin="round" stroke-width="8.28" points="178.5 57.75 178.5 92.25 213 92.25 178.5 57.75"/></g></mask><linearGradient id="f8cbe703-9569-41bd-ab65-ebc3e47284ae" x1="52" x2="236" y1="236" y2="52" gradientUnits="userSpaceOnUse"><stop offset=".1" stop-color="#be95ff"/><stop offset=".9" stop-color="#4589ff"/></linearGradient></defs><rect width="288" height="288" fill="#0f62fe"/><g><g mask="url(#be4e8e52-f9ba-472b-987c-e343895fc1e7)"><rect width="184" height="184" x="52" y="52" fill="url(#f8cbe703-9569-41bd-ab65-ebc3e47284ae)"/></g><path fill="none" stroke="#fff" stroke-linejoin="round" stroke-width="4.14" d="M98,115.2524l92-.002m-92,23.002,92-.002m-92,23,92-.002M98,184.25l92-.002M98,207.25l92-.002"/></g></svg>