<svg xmlns="http://www.w3.org/2000/svg" xmlns:xlink="http://www.w3.org/1999/xlink" id="aae8deee-1d1f-4b12-95a0-06fce9dfec97" data-name="Layer 1" viewBox="0 0 288 288"><defs><linearGradient id="f7ac3b74-09c1-4673-aebf-dd058394d2eb" x1="7665.188" x2="7706.608" y1="-15962.898" y2="-15891.157" gradientTransform="translate(7841 -15786) rotate(180)" gradientUnits="userSpaceOnUse"><stop offset=".15" stop-color="#fff"/><stop offset=".7"/></linearGradient><linearGradient id="a642e5cf-7a55-4d66-81a0-ed111245b517" x1="112.188" x2="153.608" y1="111.101" y2="182.843" gradientTransform="matrix(1, 0, 0, 1, 0, 0)" xlink:href="#f7ac3b74-09c1-4673-aebf-dd058394d2eb"/><linearGradient id="ad9d3bce-62f0-40b8-9f20-d046554cd5ac" x1="83.342" x2="162.319" y1="81.271" y2="218.063" gradientUnits="userSpaceOnUse"><stop offset=".1" stop-color="#fff"/><stop offset=".208" stop-color="#fbfbfb"/><stop offset=".321" stop-color="#eee"/><stop offset=".435" stop-color="#dadada"/><stop offset=".551" stop-color="#bcbcbc"/><stop offset=".667" stop-color="#979797"/><stop offset=".785" stop-color="#696969"/><stop offset=".901" stop-color="#343434"/><stop offset="1"/></linearGradient><linearGradient id="aee09243-1df4-4322-8a2f-6f23bf7573c0" x1="7641.342" x2="7720.319" y1="-15992.728" y2="-15855.936" gradientTransform="translate(7846 -15786) rotate(180)" xlink:href="#ad9d3bce-62f0-40b8-9f20-d046554cd5ac"/><linearGradient id="f145822e-aecd-40a4-b0d6-4ac1ab604d5e" x1="144" x2="230.25" y1="63.5" y2="63.5" gradientUnits="userSpaceOnUse"><stop offset="0" stop-color="#fff" stop-opacity="0"/><stop offset=".055" stop-color="#fff" stop-opacity=".203"/><stop offset=".119" stop-color="#fff" stop-opacity=".412"/><stop offset=".185" stop-color="#fff" stop-opacity=".592"/><stop offset=".25" stop-color="#fff" stop-opacity=".739"/><stop offset=".314" stop-color="#fff" stop-opacity=".853"/><stop offset=".377" stop-color="#fff" stop-opacity=".935"/><stop offset=".44" stop-color="#fff" stop-opacity=".984"/><stop offset=".5" stop-color="#fff"/></linearGradient><linearGradient id="ab0c1e70-32c4-4a99-965b-551d2f7ff422" x1="57.75" x2="144" y1="224.5" y2="224.5" gradientUnits="userSpaceOnUse"><stop offset=".5" stop-color="#fff"/><stop offset=".56" stop-color="#fff" stop-opacity=".984"/><stop offset=".623" stop-color="#fff" stop-opacity=".935"/><stop offset=".686" stop-color="#fff" stop-opacity=".853"/><stop offset=".75" stop-color="#fff" stop-opacity=".739"/><stop offset=".815" stop-color="#fff" stop-opacity=".592"/><stop offset=".88" stop-color="#fff" stop-opacity=".412"/><stop offset=".945" stop-color="#fff" stop-opacity=".203"/><stop offset="1" stop-color="#fff" stop-opacity="0"/></linearGradient><linearGradient id="f6d0e8e1-73fc-49e8-91b1-fc65e2b71e36" x2="288" y1="288" gradientUnits="userSpaceOnUse"><stop offset=".1" stop-color="#d0e2ff"/><stop offset=".9" stop-color="#ffd6e8"/></linearGradient><mask id="f6cc7c8e-496f-4faa-a3c8-75e392867378" width="184" height="184" x="52" y="52" maskUnits="userSpaceOnUse"><g><path fill="none" stroke="url(#f7ac3b74-09c1-4673-aebf-dd058394d2eb)" stroke-miterlimit="10" stroke-width="8.28" d="M144,184.25a40.25,40.25,0,1,0,0-80.5"/><path fill="none" stroke="url(#a642e5cf-7a55-4d66-81a0-ed111245b517)" stroke-miterlimit="10" stroke-width="8.28" d="M144,103.75a40.25,40.25,0,0,0,0,80.5"/><path fill="none" stroke="url(#ad9d3bce-62f0-40b8-9f20-d046554cd5ac)" stroke-miterlimit="10" stroke-width="8.28" d="M144,63.5a80.5,80.5,0,0,0,0,161"/><path fill="none" stroke="url(#aee09243-1df4-4322-8a2f-6f23bf7573c0)" stroke-miterlimit="10" stroke-width="8.28" d="M144,224.5a80.5,80.5,0,0,0,0-161"/><line x1="144" x2="218.75" y1="103.75" y2="103.75" fill="none" stroke="#fff" stroke-linecap="round" stroke-miterlimit="10" stroke-width="8.28"/><line x1="69.25" x2="144" y1="184.25" y2="184.25" fill="none" stroke="#fff" stroke-linecap="round" stroke-miterlimit="10" stroke-width="8.28"/><line x1="144" x2="230.25" y1="63.5" y2="63.5" fill="none" stroke="url(#f145822e-aecd-40a4-b0d6-4ac1ab604d5e)" stroke-linejoin="round" stroke-width="8.28"/><line x1="57.75" x2="144" y1="224.5" y2="224.5" fill="none" stroke="url(#ab0c1e70-32c4-4a99-965b-551d2f7ff422)" stroke-linejoin="round" stroke-width="8.28"/><circle cx="144" cy="63.5" r="5.75"/><circle cx="218.75" cy="103.75" r="5.75"/><rect width="11.5" height="11.5" x="138.25" y="218.75"/><rect width="11.5" height="11.5" x="63.5" y="178.5"/></g></mask><linearGradient id="bf8206b3-fc7b-40e0-8d0c-01f9e3fa14e1" x1="52" x2="236" y1="236" y2="52" gradientUnits="userSpaceOnUse"><stop offset=".1" stop-color="#ee5396"/><stop offset=".9" stop-color="#8a3ffc"/></linearGradient></defs><rect width="288" height="288" fill="url(#f6d0e8e1-73fc-49e8-91b1-fc65e2b71e36)"/><g><g mask="url(#f6cc7c8e-496f-4faa-a3c8-75e392867378)"><rect width="184" height="184" x="52" y="52" fill="url(#bf8206b3-fc7b-40e0-8d0c-01f9e3fa14e1)"/></g><path fill="none" stroke="#000" stroke-linejoin="round" stroke-width="4.14" d="M149.7493,63.5a5.75,5.75,0,1,1-5.75-5.75A5.75,5.75,0,0,1,149.7493,63.5ZM218.75,98a5.75,5.75,0,1,0,5.75,5.75A5.75,5.75,0,0,0,218.75,98ZM75,178.5H63.5V190H75Zm74.75,40.25h-11.5v11.5h11.5Z"/></g></svg>