<svg xmlns="http://www.w3.org/2000/svg" xmlns:xlink="http://www.w3.org/1999/xlink" width="239" height="239" version="1.1" viewBox="0 0 239 239"><title>boxplot</title><g id="boxplot" fill="none" fill-rule="evenodd" stroke="none" stroke-width="1"><g id="Group-22" stroke="#0062FF" transform="translate(47.000000, 89.000000)"><g id="Group-19" transform="translate(16.000000, 0.000000)"><g id="Group-23" stroke-linecap="square" transform="translate(0.000000, 1.500000)"><line id="Line-2" x1=".5" x2=".5" y1=".5" y2="4.5"/><line id="Line-2-Copy" x1=".5" x2="16.5" y1="2.5" y2="2.5"/></g><g id="Group-21-Copy" stroke-linecap="square" transform="translate(104.500000, 3.500000) scale(-1, 1) translate(-104.500000, -3.500000) translate(94.000000, 1.000000)"><line id="Line-2" x1=".5" x2=".5" y1=".5" y2="4.5"/><line id="Line-2-Copy" x1="1.48" x2="20.706" y1="2.5" y2="2.5"/></g><rect id="Rectangle" width="38" height="8" x="17" y="0" fill="#D9E8FE" stroke-width="1.5"/><rect id="Rectangle-Copy-12" width="38" height="8" x="56" y="0" fill="#D9E8FE" stroke-width="1.5"/></g><g id="Group-19-Copy" transform="translate(0.000000, 32.000000)"><g id="Group-21" stroke-linecap="square" transform="translate(0.000000, 1.500000)"><line id="Line-2" x1=".5" x2=".5" y1=".5" y2="4.5"/><line id="Line-2-Copy" x1=".5" x2="29.5" y1="2.5" y2="2.5"/></g><g id="Group-21-Copy" stroke-linecap="square" transform="translate(131.000000, 4.000000) scale(-1, 1) translate(-131.000000, -4.000000) translate(116.000000, 1.500000)"><line id="Line-2" x1=".5" x2=".5" y1=".5" y2="4.5"/><line id="Line-2-Copy" x1=".5" x2="29.5" y1="2.5" y2="2.5"/></g><rect id="Rectangle" width="43" height="8" x="19" y="0" fill="#D9E8FE" stroke-width="1.5"/><rect id="Rectangle-Copy-12" width="53" height="8" x="63" y="0" fill="#D9E8FE" stroke-width="1.5"/></g><g id="Group-19-Copy-2" transform="translate(51.000000, 64.000000)"><g id="Group-21" stroke-linecap="square" transform="translate(0.000000, 1.500000)"><line id="Line-2" x1=".5" x2=".5" y1=".5" y2="4.5"/><line id="Line-2-Copy" x1=".5" x2="29.5" y1="2.5" y2="2.5"/></g><g id="Group-21-Copy" stroke-linecap="square" transform="translate(73.033333, 4.000000) scale(-1, 1) translate(-73.033333, -4.000000) translate(71.000000, 1.500000)"><line id="Line-2" x1=".067" x2=".067" y1=".5" y2="4.5"/><line id="Line-2-Copy" x1=".133" x2="4" y1="2.5" y2="2.5"/></g><rect id="Rectangle" width="27" height="8" x="30" y="0" fill="#D9E8FE" stroke-width="1.5"/><rect id="Rectangle-Copy-12" width="13" height="8" x="58" y="0" fill="#D9E8FE" stroke-width="1.5"/></g><g id="Group-19-Copy-4" transform="translate(24.000000, 97.000000)"><g id="Group-21" stroke-linecap="square" transform="translate(0.000000, 1.500000)"><line id="Line-2" x1=".5" x2=".5" y1=".5" y2="4.5"/><line id="Line-2-Copy" x1=".5" x2="20.5" y1="2.5" y2="2.5"/></g><g id="Group-21-Copy" stroke-linecap="square" transform="translate(88.000000, 4.000000) scale(-1, 1) translate(-88.000000, -4.000000) translate(80.000000, 1.500000)"><line id="Line-2" x1=".262" x2=".262" y1=".5" y2="4.5"/><line id="Line-2-Copy" x1=".525" x2="15.738" y1="2.5" y2="2.5"/></g><rect id="Rectangle" width="37" height="8" x="20" y="0" fill="#D9E8FE" stroke-width="1.5"/><rect id="Rectangle-Copy-12" width="22" height="8" x="58" y="0" fill="#D9E8FE" stroke-width="1.5"/></g></g></g></svg>