<svg xmlns="http://www.w3.org/2000/svg" xmlns:xlink="http://www.w3.org/1999/xlink" width="321" height="320" version="1.1" viewBox="0 0 321 320"><title>radar copy 3</title><defs><circle id="path-1" cx="8.014" cy="8.014" r="7.013"/><polygon id="path-3" points="7.013 10.769 4.508 8.265 5.305 7.514 7.013 9.192 10.724 5.51 11.521 6.301"/><circle id="path-5" cx="8.014" cy="8.014" r="7.013"/><path id="path-7" d="M8.01444,11.019855 C8.42940122,11.019855 8.76579375,11.3562475 8.76579375,11.7712088 C8.76579375,12.18617 8.42940122,12.5225625 8.01444,12.5225625 C7.59947878,12.5225625 7.26308625,12.18617 7.26308625,11.7712088 C7.26308625,11.3562475 7.59947878,11.019855 8.01444,11.019855 Z M8.58045983,4.00722 L8.58045983,9.5171475 L7.4534292,9.5171475 L7.4534292,4.00722 L8.58045983,4.00722 Z"/><circle id="path-9" cx="8.014" cy="8.014" r="7.013"/><polygon id="path-11" points="7.45 3.615 8.577 3.615 8.577 12.406 7.45 12.406"/></defs><g id="radar-copy-3" fill="none" fill-rule="evenodd" stroke="none" stroke-width="1"><g id="Group-96-Copy" transform="translate(61.000000, 117.000000)"><rect id="Rectangle" width="136.245" height="8.014" x="60.552" y="23.567" fill="#D0E2FF"/><g id="icon/status/checkmark-filled/16" transform="translate(180.768940, 0.859200)"><mask id="mask-2" fill="#fff"><use xlink:href="#path-1"/></mask><use id="icon-color" fill="#0F62FE" fill-rule="evenodd" xlink:href="#path-1"/><mask id="mask-4" fill="#fff"><use xlink:href="#path-3"/></mask><use id="icon-color" fill="#FFF" fill-rule="evenodd" xlink:href="#path-3"/></g><g id="icon/status/warning-filled/16" transform="translate(180.768940, 54.288800)"><mask id="mask-6" fill="#fff"><use xlink:href="#path-5"/></mask><use id="icon-color" fill="#0F62FE" fill-rule="evenodd" xlink:href="#path-5"/><mask id="mask-8" fill="#fff"><use xlink:href="#path-7"/></mask><use id="icon-color" fill="#FFF" fill-rule="evenodd" xlink:href="#path-7"/></g><g id="icon/status/error-filled/16" transform="translate(180.768940, 106.382660)"><mask id="mask-10" fill="#fff"><use xlink:href="#path-9"/></mask><use id="icon-color" fill="#0062FF" fill-rule="evenodd" xlink:href="#path-9"/><mask id="mask-12" fill="#fff"><use xlink:href="#path-11"/></mask><use id="icon-color" fill="#FFF" fill-rule="evenodd" transform="translate(8.013146, 8.010898) rotate(-45.000000) translate(-8.013146, -8.010898)" xlink:href="#path-11"/></g><rect id="Rectangle-Copy-99" width="62.78" height="8.014" x=".444" y="23.567" fill="#0062FF"/><rect id="Rectangle-Copy-97" width="102.852" height="8.014" x="93.946" y="75.661" fill="#D0E2FF"/><rect id="Rectangle-Copy-100" width="118.881" height="8.014" x=".444" y="75.661" fill="#0062FF"/><rect id="Rectangle-Copy-98" width="102.852" height="8.014" x="93.946" y="127.754" fill="#D0E2FF"/><rect id="Rectangle-Copy-101" width="180.325" height="8.014" x=".444" y="127.754" fill="#0062FF"/><line id="Path-21-Copy" x1="180.101" x2="180.101" y1="135.368" y2="127.754" stroke="#001141" stroke-width="1.336"/><line id="Path-21-Copy-2" x1="154.722" x2="154.722" y1="83.274" y2="75.661" stroke="#001141" stroke-width="1.336"/><line id="Path-21-Copy-3" x1="154.722" x2="154.722" y1="30.913" y2="23.3" stroke="#001141" stroke-width="1.336"/></g></g></svg>